<svg xmlns="http://www.w3.org/2000/svg" height="186.107" width="789.747"><path d="M435.315 118.074c0 1.497-.132 3.04-.544 4.391-1.698 5.622-7.52 10.373-14.8 10.373-6.071 0-10.892-3.445-10.892-10.732 0-11.145 12.269-14.226 26.236-14.153zm21.912-19.42c0-18.388-7.854-34.56-34.392-34.56-13.627 0-24.443 3.827-30.346 7.235l4.322 14.777c5.392-3.402 13.992-6.22 22.125-6.22 13.463-.033 15.67 7.62 15.67 12.527v1.162c-29.351-.044-47.897 10.113-47.897 30.82 0 12.642 9.446 24.49 25.868 24.49 10.096 0 18.548-4.03 23.603-10.488h.5s3.352 14.023 21.83 8.66c-.971-5.836-1.283-12.057-1.283-19.551V98.654M0 39.056s19.175 78.577 22.234 91.331c3.572 14.888 10.009 20.365 28.564 16.67l11.975-48.72c3.034-12.1 5.07-20.727 7.022-33.036h.342c1.371 12.431 3.324 20.973 5.821 33.08 0 0 4.874 22.115 7.37 33.73 2.503 11.613 9.466 18.93 27.642 14.946L139.5 39.056h-23.034l-9.742 46.693c-2.619 13.592-4.993 24.212-6.826 36.646h-.326c-1.666-12.313-3.783-22.51-6.447-35.751L82.984 39.056h-24L48.137 85.445c-3.072 14.096-5.948 25.477-7.776 37.49h-.329c-1.873-11.312-4.367-25.616-7.067-39.261 0 0-6.445-33.18-8.706-44.618H0M183.055 118.074c0 1.497-.13 3.04-.544 4.391-1.698 5.622-7.52 10.373-14.8 10.373-6.07 0-10.891-3.445-10.891-10.732 0-11.145 12.268-14.226 26.235-14.153zm21.908-19.42c0-18.388-7.852-34.56-34.387-34.56-13.63 0-24.448 3.827-30.345 7.235l4.316 14.777c5.397-3.402 13.989-6.22 22.126-6.22 13.472-.033 15.676 7.62 15.676 12.527v1.162c-29.356-.044-47.898 10.113-47.898 30.82 0 12.642 9.44 24.49 25.853 24.49 10.104 0 18.553-4.03 23.617-10.488h.496s3.355 14.023 21.831 8.66c-.97-5.836-1.285-12.057-1.285-19.551V98.654M241.523 124.127V39.056h-21.931v108.001h21.93v-22.93M528.465 39.056v79.674c0 10.983 2.068 18.68 6.491 23.38 3.864 4.113 10.228 6.775 17.855 6.775 6.484 0 12.864-1.23 15.87-2.35l-.282-17.137c-2.238.55-4.811.99-8.331.99-7.47 0-9.976-4.785-9.976-14.647V85.26h19.1V64.596h-19.1v-25.54h-21.627M471.85 65.924v81.133h22.625v-41.543c0-2.243.136-4.197.49-5.989 1.674-8.703 8.331-14.265 17.884-14.265 2.623 0 4.499.284 6.53.578V64.596c-1.703-.344-2.867-.503-4.986-.503-8.442 0-18.048 5.45-22.08 17.134h-.614V65.924H471.85M256.883 65.924v81.133h22.046V99.476c0-2.23.256-4.589 1.035-6.64 1.827-4.791 6.283-10.395 13.399-10.395 8.896 0 13.058 7.522 13.058 18.376v46.24h22.024V98.902c0-2.13.292-4.694.919-6.577 1.81-5.449 6.615-9.884 13.23-9.884 9.018 0 13.347 7.39 13.347 20.162v44.454h22.039V99.273c0-25.2-12.795-35.18-27.24-35.18-6.397 0-11.447 1.604-16.012 4.406-3.837 2.356-7.273 5.7-10.276 10.106h-.325c-3.486-8.744-11.682-14.512-22.36-14.512-13.724 0-19.89 6.955-23.63 12.855h-.326V65.924h-20.928" fill="#2d7bc8"/><path d="M687.753 62.654c4.36 0 7.95-2.264 8.435-5.196l4.31-48.69c0-4.813-5.638-8.767-12.731-8.767-7.08 0-12.71 3.954-12.71 8.767l4.3 48.69c.475 2.932 4.068 5.196 8.412 5.196h-.016M661.436 77.865c2.188-3.771 2.019-8.015-.284-9.896L621.131 39.9c-4.158-2.408-10.4.49-13.942 6.63-3.552 6.133-2.922 12.985 1.234 15.39l44.309 20.633c2.775 1.032 6.545-.944 8.72-4.715l-.016.027M714.09 77.838c2.182 3.77 5.94 5.747 8.715 4.715l44.316-20.633c4.174-2.405 4.772-9.257 1.244-15.39-3.557-6.14-9.806-9.038-13.956-6.63l-40.022 28.069c-2.29 1.881-2.459 6.125-.282 9.896l-.016-.027M687.753 123.47c4.36 0 7.95 2.253 8.435 5.183l4.31 48.687c0 4.821-5.638 8.767-12.731 8.767-7.08 0-12.71-3.946-12.71-8.767l4.3-48.687c.475-2.93 4.068-5.182 8.412-5.182h-.016M714.09 108.265c2.182-3.778 5.94-5.74 8.715-4.695l44.316 20.61c4.174 2.413 4.772 9.27 1.244 15.408-3.557 6.12-9.806 9.028-13.956 6.628l-40.022-28.047c-2.29-1.904-2.459-6.144-.282-9.912l-.016.008M661.436 108.257c2.188 3.768 2.019 8.008-.284 9.912l-40.021 28.047c-4.158 2.4-10.4-.508-13.942-6.628-3.552-6.139-2.922-12.995 1.234-15.409l44.309-20.61c2.775-1.044 6.545.918 8.723 4.696l-.019-.008M781.416 142.955h.916c1 0 1.872-.307 1.872-1.176 0-.699-.432-1.18-1.741-1.18-.522 0-.826.044-1.047.088zm0 4.097h-1.35v-7.279c.74-.13 1.523-.218 2.529-.218 1.221 0 1.83.218 2.308.564.44.305.738.873.738 1.529 0 .916-.648 1.482-1.437 1.743v.088c.657.26 1.005.828 1.224 1.745.213 1.13.35 1.567.524 1.828h-1.396c-.219-.261-.39-.915-.568-1.917-.172-.785-.656-1.134-1.7-1.134h-.872zm1.223-9.55c-3.14 0-5.539 2.573-5.539 5.711 0 3.232 2.399 5.755 5.625 5.755 3.143.05 5.451-2.523 5.451-5.708s-2.308-5.759-5.492-5.759zm.086-1.22c3.924 0 7.022 3.053 7.022 6.931 0 3.97-3.098 7.023-7.063 7.023-3.97 0-7.11-3.052-7.11-7.023 0-3.878 3.14-6.93 7.11-6.93h.041" fill="#fab41d"/></svg>