<svg xmlns="http://www.w3.org/2000/svg" height="157.893" width="140.653"><g fill="#fab41d"><path d="M70.312 53.157c3.698 0 6.743-1.918 7.155-4.407l3.656-41.307c0-4.082-4.784-7.436-10.8-7.436-6.007 0-10.782 3.354-10.782 7.436l3.647 41.307c.404 2.489 3.452 4.407 7.137 4.407h-.013M47.985 66.063c1.856-3.199 1.712-6.8-.24-8.397l-33.953-23.81c-3.526-2.044-8.823.414-11.829 5.624-3.012 5.202-2.477 11.015 1.05 13.056L40.6 70.04c2.354.875 5.553-.801 7.397-3.999l-.013.022M92.654 66.041c1.85 3.198 5.04 4.874 7.393 3.999l37.596-17.504c3.541-2.04 4.048-7.854 1.056-13.056-3.018-5.21-8.32-7.668-11.84-5.624l-33.952 23.81c-1.944 1.598-2.087 5.198-.24 8.397l-.013-.022M70.312 104.758c3.698 0 6.743 1.91 7.155 4.396l3.656 41.303c0 4.09-4.784 7.436-10.8 7.436-6.007 0-10.782-3.347-10.782-7.436l3.647-41.303c.404-2.486 3.452-4.396 7.137-4.396h-.013M92.654 91.856c1.85-3.207 5.04-4.871 7.393-3.986l37.596 17.488c3.541 2.048 4.048 7.865 1.056 13.072-3.018 5.19-8.32 7.66-11.84 5.622l-33.952-23.791c-1.944-1.615-2.087-5.214-.24-8.413l-.013.008M47.985 91.848c1.856 3.199 1.712 6.798-.24 8.413l-33.953 23.791c-3.526 2.038-8.823-.431-11.829-5.622-3.012-5.207-2.477-11.024 1.05-13.072L40.6 87.87c2.354-.885 5.553.779 7.4 3.986l-.016-.008M85.518 155.225h.269c.318 0 .572-.105.572-.36 0-.226-.166-.378-.526-.378-.15 0-.255.014-.315.03zm-.016 1.384h-.572v-2.453c.226-.045.542-.09.947-.09.467 0 .678.075.858.196a.678.678 0 0 1 .242.526c0 .287-.212.498-.511.587v.03c.24.075.375.271.45.602.076.375.12.527.18.602h-.616c-.076-.09-.121-.301-.197-.587-.044-.27-.194-.391-.51-.391h-.27zm.375-3.249c-1.082 0-1.895.886-1.895 1.97 0 1.098.813 1.971 1.925 1.971 1.085.015 1.882-.873 1.882-1.972 0-1.083-.797-1.969-1.896-1.969zm.03-.497c1.415 0 2.514 1.099 2.514 2.466 0 1.4-1.099 2.483-2.528 2.483-1.414 0-2.544-1.083-2.544-2.483 0-1.367 1.13-2.466 2.544-2.466h.014"/></g></svg>