<?xml version="1.0" encoding="UTF-8" standalone="no"?>
<svg
   xmlns:dc="http://purl.org/dc/elements/1.1/"
   xmlns:cc="http://creativecommons.org/ns#"
   xmlns:rdf="http://www.w3.org/1999/02/22-rdf-syntax-ns#"
   xmlns:svg="http://www.w3.org/2000/svg"
   xmlns="http://www.w3.org/2000/svg"
   viewBox="0 0 140.65334 157.89333"
   height="157.89333"
   width="140.65334"
   xml:space="preserve"
   id="svg2"
   version="1.1"><metadata
     id="metadata8"><rdf:RDF><cc:Work
         rdf:about=""><dc:format>image/svg+xml</dc:format><dc:type
           rdf:resource="http://purl.org/dc/dcmitype/StillImage" /></cc:Work></rdf:RDF></metadata><defs
     id="defs6" /><g
     transform="matrix(1.3333333,0,0,-1.3333333,0,157.89333)"
     id="g10"><g
       transform="scale(0.1)"
       id="g12"><path
         id="path14"
         style="fill:#fab41d;fill-opacity:1;fill-rule:nonzero;stroke:none"
         d="m 527.34,785.523 c 27.734,0 50.574,14.387 53.66,33.051 l 27.422,309.806 c 0,30.61 -35.879,55.77 -81.004,55.77 -45.051,0 -80.859,-25.16 -80.859,-55.77 L 473.91,818.574 c 3.028,-18.664 25.891,-33.051 53.528,-33.051 h -0.098" /><path
         id="path16"
         style="fill:#fab41d;fill-opacity:1;fill-rule:nonzero;stroke:none"
         d="m 359.887,688.73 c 13.918,23.989 12.843,50.993 -1.805,62.973 L 103.441,930.281 C 76.9961,945.609 37.2695,927.172 14.7227,888.102 -7.86719,849.082 -3.85156,805.484 22.5938,790.18 L 304.508,658.902 c 17.656,-6.566 41.648,6.008 55.476,29.989 l -0.097,-0.161" /><path
         id="path18"
         style="fill:#fab41d;fill-opacity:1;fill-rule:nonzero;stroke:none"
         d="m 694.906,688.891 c 13.879,-23.981 37.805,-36.555 55.449,-29.989 L 1032.32,790.18 c 26.56,15.304 30.36,58.902 7.92,97.922 -22.63,39.07 -62.404,57.507 -88.799,42.179 L 696.801,751.703 c -14.578,-11.98 -15.653,-38.984 -1.797,-62.973 l -0.098,0.161" /><path
         id="path20"
         style="fill:#fab41d;fill-opacity:1;fill-rule:nonzero;stroke:none"
         d="m 527.34,398.516 c 27.734,0 50.574,-14.328 53.66,-32.969 L 608.422,55.7695 C 608.422,25.1016 572.543,0 527.418,0 482.367,0 446.559,25.1016 446.559,55.7695 L 473.91,365.547 c 3.028,18.641 25.891,32.969 53.528,32.969 h -0.098" /><path
         id="path22"
         style="fill:#fab41d;fill-opacity:1;fill-rule:nonzero;stroke:none"
         d="m 694.906,495.281 c 13.879,24.055 37.805,36.535 55.449,29.895 L 1032.32,394.012 c 26.56,-15.36 30.36,-58.985 7.92,-98.035 -22.63,-38.934 -62.404,-57.454 -88.799,-42.168 l -254.64,178.437 c -14.578,12.109 -15.653,39.102 -1.797,63.094 l -0.098,-0.059" /><path
         id="path24"
         style="fill:#fab41d;fill-opacity:1;fill-rule:nonzero;stroke:none"
         d="m 359.887,495.34 c 13.918,-23.992 12.843,-50.985 -1.805,-63.094 L 103.441,253.809 c -26.4449,-15.286 -66.1715,3.234 -88.7183,42.168 -22.58989,39.05 -18.57426,82.675 7.8711,98.035 L 304.508,525.176 c 17.656,6.64 41.648,-5.84 55.496,-29.895 l -0.117,0.059" /><path
         id="path26"
         style="fill:#fab41d;fill-opacity:1;fill-rule:nonzero;stroke:none"
         d="m 641.383,20.0117 h 2.019 c 2.383,0 4.289,0.7891 4.289,2.7071 0,1.6914 -1.242,2.832 -3.945,2.832 -1.125,0 -1.914,-0.1094 -2.363,-0.2305 z M 641.266,9.62891 h -4.289 V 28.0313 c 1.691,0.3398 4.062,0.6796 7.101,0.6796 3.504,0 5.086,-0.5703 6.434,-1.4726 1.015,-0.7969 1.816,-2.2578 1.816,-3.9492 0,-2.1485 -1.59,-3.7305 -3.836,-4.3985 v -0.2304 c 1.797,-0.5586 2.813,-2.0313 3.379,-4.5118 0.567,-2.8164 0.906,-3.957 1.356,-4.51949 h -4.629 c -0.567,0.67969 -0.907,2.26169 -1.473,4.40239 -0.332,2.0273 -1.457,2.9375 -3.828,2.9375 h -2.031 z M 644.078,34 c -8.117,0 -14.211,-6.6484 -14.211,-14.7695 0,-8.2422 6.094,-14.78909 14.434,-14.78909 8.137,-0.11328 14.113,6.54689 14.113,14.78909 0,8.1211 -5.976,14.7695 -14.219,14.7695 z m 0.223,3.7305 c 10.617,0 18.859,-8.2422 18.859,-18.5 0,-10.50003 -8.242,-18.621125 -18.965,-18.621125 -10.605,0 -19.074,8.121095 -19.074,18.621125 0,10.2578 8.469,18.5 19.074,18.5 h 0.106" /></g></g></svg>